<?xml version="1.0" encoding="utf-8"?>
<svg viewBox="0 0 500 500" xmlns="http://www.w3.org/2000/svg">
  <rect style="stroke: rgb(0, 0, 0); fill-rule: nonzero;" x="16.213" y="10.046" width="459.556" height="480.497" rx="100" ry="100" transform="matrix(1, 0, 0, 1, 7.105427357601002e-15, 3.552713678800501e-15)"/>
  <path fill="#ffffff" d="M 337.243 225.826 C 337.286 226.08 325.308 225.737 322.561 227.542 C 319.814 229.347 321.09 237.05 324.231 237.661 C 325.743 237.955 338.036 236.337 338.069 236.597 C 338.975 243.85 338.587 244.326 338.508 251.085 C 338.486 252.972 338.464 254.824 338.464 256.621 C 338.464 280.993 299.794 299.371 248.513 299.371 C 246.482 299.371 244.479 299.332 242.49 299.275 C 242.138 299.264 241.787 299.251 241.436 299.239 C 193.723 297.63 158.564 279.856 158.564 256.621 C 158.564 249.583 161.806 242.739 167.938 236.833 C 171.371 233.529 176.881 233.578 180.248 236.951 C 183.614 240.323 183.559 245.736 180.127 249.042 C 177.371 251.696 175.974 254.245 175.974 256.62 C 175.974 263.421 187.938 272.222 208.482 277.547 C 206.185 270.861 204.991 263.817 204.991 256.62 C 204.991 250.709 205.781 244.913 207.348 239.301 C 202.711 237.527 198.201 235.559 193.872 233.417 C 177.541 225.414 162.948 215.038 149.29 201.712 C 135.678 188.362 125.057 174.027 116.809 157.87 C 112.416 149.342 108.744 140.137 105.912 130.536 C 104.453 125.546 103.237 120.301 102.29 114.927 L 102.264 114.773 C 102.261 114.757 102.245 114.667 102.242 114.652 C 101.062 107.88 103.311 100.924 108.26 96.044 C 113.208 91.168 120.274 88.94 127.167 90.068 L 127.361 90.1 C 132.78 90.996 138.098 92.165 143.138 93.57 C 152.898 96.315 162.241 99.887 170.926 104.19 C 187.296 112.226 201.87 122.635 215.451 135.994 C 215.709 136.249 215.96 136.508 216.217 136.764 C 216.128 134.492 216.067 132.215 216.064 129.923 C 216.09 111.045 218.938 93.575 224.77 76.499 C 227.819 67.456 231.867 58.444 236.793 49.747 C 239.366 45.229 242.291 40.709 245.498 36.291 L 245.662 36.068 C 249.656 30.575 256.241 27.253 263.229 27.253 C 263.25 27.253 263.268 27.253 263.289 27.253 C 270.301 27.274 276.895 30.635 280.927 36.247 L 281.096 36.483 C 284.25 40.885 287.153 45.429 289.688 49.935 C 294.588 58.7 298.595 67.743 301.613 76.835 C 307.358 93.928 310.13 111.418 310.076 130.274 C 309.969 149.186 307.084 166.645 301.258 183.668 C 300.256 186.631 299.131 189.594 297.921 192.542 C 309.616 194.202 319.973 197.627 327.042 204.57 C 333.02 210.442 335.849 217.531 337.243 225.826 Z M 253.65 149.486 C 256.378 159.851 262.237 172.129 266.098 181.898 C 270.322 188.749 275.807 184.658 288.58 187.948 C 288.577 187.933 288.229 187.671 288.116 187.45 C 283.609 177.982 282.728 177.625 274.153 150.692 C 264.978 121.877 266.011 109.428 269.495 88.553 C 272.843 68.494 268.996 97.935 269.941 88.26 C 270.805 79.41 265.826 76.237 260.921 76.227 C 255.635 76.216 252.796 84.799 252.369 87.283 C 250.622 97.448 253.671 76.124 251.109 95.883 C 249.029 111.923 248.154 128.603 253.65 149.486 Z M 255.147 38.186 C 255.138 38.182 255.128 38.18 255.117 38.18 C 255.117 38.18 255.127 38.182 255.147 38.186 Z M 153.761 115.27 C 166.044 146.469 179.193 158.491 186.037 165.2 C 193.479 172.462 200.728 178.127 208.179 182.5 C 213.325 185.519 218.826 188.101 224.535 190.172 C 225.839 190.645 227.245 190.954 228.709 191.088 C 229.221 191.134 229.74 191.159 230.252 191.159 L 234.247 191.159 C 233.721 190.304 233.219 189.43 232.762 188.522 L 232.285 187.584 C 224.894 173.081 215.359 160.165 203.117 148.06 C 190.898 136.042 177.807 126.684 163.114 119.472 C 160.081 117.969 156.959 116.567 153.761 115.27 Z M 261.722 222.511 C 254.934 222.511 249.431 228.014 249.431 234.802 C 249.431 241.59 254.934 247.093 261.722 247.093 C 268.51 247.093 274.013 241.59 274.013 234.802 C 274.013 228.014 268.51 222.511 261.722 222.511 Z" transform="matrix(1, 0, 0, 1, 7.105427357601002e-15, 3.552713678800501e-15)"/>
  <path fill="#ffffff" d="M 340.501 189.853 C 335.822 188.736 331.122 191.557 329.989 196.146 C 328.854 200.734 331.723 205.357 336.395 206.47 C 388.773 218.954 422.615 241.994 422.615 265.171 C 422.615 281.845 405.023 298.813 374.349 311.725 C 340.88 325.812 296.192 333.571 248.516 333.571 C 200.84 333.571 156.15 325.812 122.683 311.725 C 92.009 298.813 74.417 281.845 74.417 265.171 C 74.417 246.847 95.983 228.065 132.105 214.931 C 136.614 213.292 138.915 208.374 137.246 203.945 C 135.577 199.516 130.572 197.252 126.061 198.895 C 81.531 215.085 57.006 238.623 57.006 265.171 C 57.006 289.361 77.895 311.476 115.824 327.441 C 123.729 330.769 132.205 333.763 141.154 336.41 L 141.154 410.521 C 141.154 429.422 153.912 445.762 177.079 456.529 C 196.284 465.455 221.654 470.371 248.515 470.371 C 275.376 470.371 300.746 465.455 319.951 456.529 C 343.119 445.762 355.876 429.422 355.876 410.521 L 355.876 336.409 C 364.823 333.762 373.301 330.768 381.205 327.442 C 419.136 311.476 440.025 289.362 440.025 265.172 C 440.025 232.859 402.818 204.703 340.501 189.853 Z M 294.118 414.499 C 294.119 442.268 252.322 445.31 245.672 402.669 C 239.022 360.028 215.419 450.227 215.419 422.46 L 204.048 405.617 C 208.509 409.351 168.319 372.394 174.419 375.445 C 175.685 376.078 216.263 436.644 217.591 436.644 C 220.761 436.644 184.588 374.67 186.124 371.703 C 188.305 367.495 219.815 371.172 215.13 370.114 C 184.002 363.079 165.083 350.124 161.171 341.569 C 187.829 347.513 217.625 350.668 248.514 350.668 C 279.422 350.668 309.233 347.51 335.903 341.559 C 325.618 362.364 281.179 373.792 243.64 373.792 C 232.356 373.792 193.186 365.771 182.645 363.888 C 177.908 363.036 164.287 364.905 163.424 369.55 C 162.564 374.196 178.777 395.704 183.507 396.55 C 195.076 398.617 172.507 417.859 184.835 417.859 C 211.696 417.859 218.872 444.782 238.078 435.855 C 245.279 432.508 280.47 447.953 285.588 443.62 L 338.464 410.519 L 294.118 414.499 Z" transform="matrix(1, 0, 0, 1, -4.476419235288631e-13, 3.552713678800501e-15)"/>
</svg>